# xmcd CD database file
#
# Track frame offsets:
#	150
#	13219
#	26031
#	36792
#	50694
#	72523
#	85959
#	110463
#	131956
#	148941
#	163868
#	181022
#	197444
#	224519
#
# Disc length: 3133 seconds
#
# Revision: 1
# Processed by: cddbd v1.5.2PL0 Copyright (c) Steve Scherf et al.
# Submitted via: CDex 1.79
#
DISCID=d60c3b0e
DTITLE=Various Artist - Ground-Breaking Blues
DYEAR=2009
DGENRE=Blues
TTITLE0=Fleetwood Mac - Dust My Broom
TTITLE1=Duster Bennett - It's a Man Down There
TTITLE2=Eddie Boyd - You Got to Reap
TTITLE3=Chicken Shack - San-Ho-Zay
TTITLE4=Champion Jack Dupree - Income Tax
TTITLE5=Gordon Smith - Pearlie Blues
TTITLE6=Otis Spann - My Love Depends on You
TTITLE7=Jellybread - I Pity the Fool
TTITLE8=Johnny Young - My Trainfare Out of Town
TTITLE9=Christine Perfect - I'm Too Far Gone (To Turn Around)
TTITLE10=Johnny Shines - Last Night's Dream
TTITLE11=Top Topham - Hop House
TTITLE12=George Smith - Telephone Blues
TTITLE13=Key Largo - Wrapped Up in Love Again
EXTD=YEAR: 2009
EXTT0=
EXTT1=
EXTT2=
EXTT3=
EXTT4=
EXTT5=
EXTT6=
EXTT7=
EXTT8=
EXTT9=
EXTT10=
EXTT11=
EXTT12=
EXTT13=
PLAYORDER=
